<?xml version="1.0" encoding="UTF-8"?>
<!DOCTYPE svg PUBLIC "-//W3C//DTD SVG 1.1//EN" "http://www.w3.org/Graphics/SVG/1.1/DTD/svg11.dtd">
<svg xmlns="http://www.w3.org/2000/svg" version="1.1" width="512px" height="512px" style="shape-rendering:geometricPrecision; text-rendering:geometricPrecision; image-rendering:optimizeQuality; fill-rule:evenodd; clip-rule:evenodd" xmlns:xlink="http://www.w3.org/1999/xlink">
<g><path fill="#000000" fill-opacity="0.996" stroke="#000000" stroke-width="0.5" stroke-opacity="0.996" d="M 9,139 c 0.37,-19.35 17.4,-33.15 36.4,-29.23 c 0.2,-0.12 0.41,-0.24 0.62,-0.36 c 0.1,-4.6 0.55,-9.17 1.36,-13.72 c 2.87,-12.76 9.57,-23.02 20.08,-30.8 c 2.4,-1.63 4.83,-3.17 7.31,-4.63 c 0.17,-0.49 0.11,-0.94 -0.19,-1.36 c -19.21,-22.81 1.89,-56 30.72,-48.48 c 21.42,6.59 28.85,31.25 14.48,48.57 c -0.22,0.35 -0.3,0.72 -0.24,1.13 c 2.65,1.6 5.27,3.3 7.84,5.08 c 14.35,11.24 21.27,25.97 20.74,44.19 c 0.32,0.48 0.77,0.68 1.35,0.58 c 32.28,-6.55 50.12,37.06 21.09,55.12 c -14.43,8.28 -32.29,3.82 -40.95,-10.37 c -1.1,-2.17 -2.19,-4.31 -3.28,-6.43 c -2.55,1.29 -5.09,2.61 -7.64,3.97 c -17.12,7.68 -34.61,5.91 -50.32,-4.04 c -0.48,-0.08 -0.84,0.1 -1.08,0.52 c -12,31.95 -57.45,24.08 -58.29,-9.74 Z M 236.83,148 c 0.1,-1.8 0.78,-3.34 2.05,-4.61 c 7.01,-6.95 13.93,-13.97 20.77,-21.06 c 0.18,-0.45 0.2,-0.91 0.05,-1.37 c -12.2,-25.88 13.83,-52.1 39.94,-40.08 c 0.58,0.14 1.15,0.09 1.7,-0.16 c 14.74,-14.55 29.42,-29.16 44.04,-43.84 c 57.03,-56.9 153.62,-19.43 157.3,61.62 c 0.48,26.62 -8.57,49.46 -27.17,68.51 c -35.33,35.34 -70.67,70.67 -106,106.01 c -3.37,3.29 -6.87,3.46 -10.51,0.5 c -11.81,-11.87 -23.68,-23.66 -35.62,-35.37 c -0.59,-0.2 -1.17,-0.17 -1.73,0.11 c -39.49,25.62 -85.52,-20.59 -59.79,-59.91 c 0.23,-0.58 0.24,-1.15 0.01,-1.73 c -7.72,-7.9 -15.49,-15.76 -23.31,-23.58 c -1.3,-1.43 -1.87,-3.11 -1.73,-5.04 Z M 81.15,39 c 1.22,21.3 30.11,21.08 31.91,1.5 c 1,-21.7 -30.5,-23.21 -31.91,-1.5 Z M 254.13,148 c 0.42,2.17 14.9,15.24 17.25,18.11 c 0.32,0.38 0.72,0.61 1.21,0.69 c 2.77,-1.45 5.58,-2.85 8.43,-4.21 c 39.49,-16.36 76.23,28.29 52.38,64.08 c -0.21,0.48 -0.19,0.96 0.05,1.42 c 9.64,9.68 19.28,19.35 28.92,29.02 c 0.54,0.63 1.21,0.91 2.03,0.83 c 33.83,-33.5 67.56,-67.12 101.19,-100.85 c 15.88,-16.29 23.57,-35.8 23.06,-58.55 c -3.33,-64.88 -77.23,-97.75 -127.63,-57.03 c -16.28,15.2 -32.76,32.53 -48.76,48.28 c -0.37,0.49 -0.5,1.04 -0.39,1.65 c 15.45,28.64 -13.82,58.63 -41.52,41.67 c -0.54,-0.15 -1.05,-0.09 -1.54,0.18 c -4.94,4.85 -9.84,9.75 -14.68,14.71 Z M 60.27,106 c 0.68,15.44 7.89,26.67 21.66,33.69 c 30.18,13.39 61.16,-15.77 49.72,-46.73 c -16.36,-38.27 -70.27,-27.22 -71.38,13.04 Z M 270.67,108 c 0.4,20.52 31.06,21.3 31.79,-0.5 c -1.17,-20.91 -31.24,-20.68 -31.79,0.5 Z M 23.01,139 c 0.96,21.66 31.8,20.89 31.94,-0.5 c -2.32,-21.8 -31.73,-19.08 -31.94,0.5 Z M 139.27,139 c 1.16,21.45 30.3,21.1 31.87,1.5 c 0.72,-21.9 -30.35,-22.97 -31.87,-1.5 Z M 345.95,171 c 0.67,-34.85 48.73,-41.75 58.94,-7.48 c 9.3,44.23 -57.99,51.06 -58.94,7.48 Z M 359.96,171 c -0.46,18.76 29.24,22.92 31.92,0.5 c -0.24,-21.44 -31.12,-22.09 -31.92,-0.5 Z M 268.65,202 c 0.06,9.91 4.02,17.87 11.9,23.88 c 23.74,16.93 54.76,-7.07 44.25,-34.23 c -13.13,-30.2 -56.03,-20.46 -56.15,10.35 Z M 161.99,209 c 1.58,-36.54 53.02,-40.61 59.73,-3.34 c 4.44,41.67 -59.12,45.95 -59.73,3.34 Z M 176.01,210 c 0.98,18.82 28,21.24 31.81,1.48 c 1.63,-22.64 -31.36,-24.41 -31.81,-1.48 Z M 9.76,411 c -0.14,-25.34 9.58,-48.39 27.61,-66.13 c 35.01,-34.99 70.01,-69.99 105,-105 c 2.11,-2.58 4.78,-3.5 8.03,-2.79 c 5.4,2.81 24.28,23.91 30.55,29.22 c 0.58,0.16 1.09,0.04 1.54,-0.36 c 10.17,-12.04 23.11,-17.57 38.83,-16.58 c 40.17,4.81 55,53.16 23.82,79.2 c -0.39,0.43 -0.52,0.92 -0.4,1.48 c 2.47,2.76 5.1,5.36 7.87,7.81 c 0.59,0.16 1.15,0.12 1.71,-0.12 c 7.04,-3.81 14.42,-4.69 22.16,-2.62 c 39.91,13.09 19.8,69.05 -16.78,57.49 c -2.14,-0.7 -4.21,-1.54 -6.23,-2.52 c -0.56,-0.04 -1.06,0.12 -1.5,0.46 c -30.06,30.22 -60.27,60.29 -90.61,90.21 c -60.23,50.3 -151.35,8.85 -151.6,-69.75 Z M 23.78,411 c 0.18,66.63 77.6,101.85 128.66,58.95 c 29.97,-29.69 59.85,-59.47 89.63,-89.35 c 0.47,-0.47 0.65,-1.03 0.56,-1.67 c -3.72,-6.67 -4.82,-13.76 -3.31,-21.26 c 0.83,-3.18 1.95,-6.25 3.35,-9.19 c -0.84,-2.27 -9.4,-9.72 -11.6,-11.74 c -9.38,1.55 -15.72,2.71 -25.54,0.14 c -24.63,-7.27 -37.79,-30.97 -31.09,-55.85 c 0.06,-0.38 0.02,-0.75 -0.13,-1.1 c -8.16,-8.4 -16.4,-16.73 -24.7,-25 c -0.5,-0.52 -1.1,-0.71 -1.79,-0.55 c -33.57,33.41 -67.08,66.87 -100.55,100.39 c -15.42,15.26 -23.62,34.47 -23.49,56.23 Z M 278.49,286.78 c 3.36,-43.36 66.15,-35.29 59.36,6.7 c -8.83,35.8 -59.12,29.62 -59.36,-6.7 Z M 186.72,294 c 0.76,33.5 45.51,42.15 58.87,11.29 c 11.22,-27.82 -20.37,-53.65 -45.63,-36.71 c -8.7,6.25 -13.12,14.72 -13.24,25.42 Z M 292.52,287.95 c 0.85,20.13 30.81,21.06 31.79,-0.45 c -0.64,-21 -31.18,-21.23 -31.79,0.45 Z M 327.01,423 c 0.31,-19.32 17.36,-33.26 36.35,-29.33 c 0.18,-0.11 0.37,-0.22 0.56,-0.32 c 0.19,-2.55 0.33,-5.11 0.43,-7.68 c 2.09,-18.54 11.32,-32.29 27.68,-41.26 c 0.45,-0.18 0.71,-0.51 0.78,-0.99 c -2.11,-2.94 -3.93,-6.07 -5.48,-9.38 c -2.46,-6.04 -2.88,-12.22 -1.27,-18.53 c 13.03,-42.32 72.89,-18.77 56.4,19.49 c -1.53,2.97 -3.23,5.81 -5.09,8.51 c 0.12,0.36 0.35,0.63 0.69,0.81 c 19.8,10.74 27.73,26.98 28.04,49.07 c 0.35,0.45 0.81,0.61 1.37,0.48 c 16.67,-3.46 32.48,8.18 35.2,24.8 c 4.22,36.41 -45.33,48.29 -58.02,14.11 c -0.22,-0.43 -0.57,-0.65 -1.06,-0.66 c -2.35,1.33 -4.75,2.6 -7.19,3.82 c -13.88,6.15 -28.92,6.29 -42.75,-0.11 c -2.4,-1.24 -4.79,-2.5 -7.17,-3.78 c -0.56,-0.07 -0.97,0.15 -1.21,0.67 c -12.13,32.02 -57.52,23.62 -58.26,-9.72 Z M 399.11,323 c 0.97,18.14 25.38,21.99 31.4,4 c 5.05,-23.07 -29.79,-28.46 -31.4,-4 Z M 252.74,364 c 0.66,20.83 30.31,21.37 31.83,0.35 c -1.48,-22.98 -32.13,-19.95 -31.83,-0.35 Z M 378.19,390 c 1.19,40.05 54.89,51.11 71.31,13.02 c 11.9,-31.22 -20.36,-60.94 -50.46,-46.43 c -13.35,7.14 -20.3,18.27 -20.85,33.41 Z M 341.03,423 c 2.53,26.95 40.48,15.7 30.32,-6.95 c -8.24,-15.23 -29.44,-10.24 -30.32,6.95 Z M 457.04,423 c 0.82,22.74 34.18,20.66 31.74,-2.47 c -4.7,-19.95 -31.57,-15.71 -31.74,2.47 Z"/></g>
</svg>
